<?xml version="1.0" encoding="UTF-8" standalone="no"?>
<svg
   xmlns:dc="http://purl.org/dc/elements/1.1/"
   xmlns:cc="http://creativecommons.org/ns#"
   xmlns:rdf="http://www.w3.org/1999/02/22-rdf-syntax-ns#"
   xmlns:svg="http://www.w3.org/2000/svg"
   xmlns="http://www.w3.org/2000/svg"
   xmlns:sodipodi="http://sodipodi.sourceforge.net/DTD/sodipodi-0.dtd"
   xmlns:inkscape="http://www.inkscape.org/namespaces/inkscape"
   viewBox="0 0 312.5 211.83246657671296"
   height="211.83246657671296"
   width="312.5"
   style="width: 312.5px; height: 211.832px; position: absolute; top: 50%; left: 50%; transform: translate(-50%, -50%) scale(1.18962); z-index: 0; cursor: pointer;"
   version="1.1"
   id="svg30"
   sodipodi:docname="logo.svg"
   inkscape:export-filename="/home/linus/web/everready/logo.png"
   inkscape:export-xdpi="600"
   inkscape:export-ydpi="600"
   inkscape:version="1.0.2 (e86c870879, 2021-01-15)">
  <metadata
     id="metadata34">
    <rdf:RDF>
      <cc:Work
         rdf:about="">
        <dc:format>image/svg+xml</dc:format>
        <dc:type
           rdf:resource="http://purl.org/dc/dcmitype/StillImage" />
      </cc:Work>
    </rdf:RDF>
  </metadata>
  <sodipodi:namedview
     pagecolor="#ffffff"
     bordercolor="#666666"
     borderopacity="1"
     objecttolerance="10"
     gridtolerance="10"
     guidetolerance="10"
     inkscape:pageopacity="0"
     inkscape:pageshadow="2"
     inkscape:window-width="1600"
     inkscape:window-height="863"
     id="namedview32"
     showgrid="false"
     inkscape:zoom="3.054273"
     inkscape:cx="197.95319"
     inkscape:cy="113.67152"
     inkscape:window-x="0"
     inkscape:window-y="37"
     inkscape:window-maximized="0"
     inkscape:current-layer="SvgjsG1081" />
  <defs
     id="SvgjsDefs1078" />
  <g
     id="SvgjsG1079"
     featurekey="rootContainer"
     transform="matrix(2.6916451454162598,0,0,2.6916451454162598,0,0)"
     fill="#ff847c">
    <path
       d="M116.1 78.7H0V0h116.1zM2 76.7h112.1V2H2z"
       id="path3" />
  </g>
  <g
     id="SvgjsG1080"
     featurekey="symbolFeature-0"
     transform="matrix(0.15469659864902496,0,0,0.15469659864902496,79.29825406898038,7.883550307590561)"
     fill="#ff847c">
    <path
       fill="none"
       stroke="#ff847c"
       stroke-width="14"
       stroke-miterlimit="10"
       d="M358.5,689.6l-17.7,7.7c-9.5,4.2-20.6-0.2-24.8-9.7  l-68.9-157.2c-4.2-9.5,0.2-20.6,9.7-24.8l17.7-7.7c9.5-4.2,20.6,0.2,24.8,9.7l68.9,157.2C372.4,674.3,368.1,685.4,358.5,689.6z"
       id="path6" />
    <path
       fill="none"
       stroke="#ff847c"
       stroke-width="14"
       stroke-miterlimit="10"
       d="M293.5,684l-17.7,7.7c-9.5,4.2-20.6-0.2-24.8-9.7  L207.1,582c-4.2-9.5,0.2-20.6,9.7-24.8l17.7-7.7c9.5-4.2,20.6,0.2,24.8,9.7l43.9,100.1C307.3,668.8,303,679.9,293.5,684z"
       id="path8" />
    <path
       fill="none"
       stroke="#ff847c"
       stroke-width="14"
       stroke-miterlimit="10"
       d="M533.5,384.3l17.7-7.7c9.5-4.2,20.6,0.2,24.8,9.7  l68.9,157.2c4.2,9.5-0.2,20.6-9.7,24.8l-17.7,7.7c-9.5,4.2-20.6-0.2-24.8-9.7l-68.9-157.2C519.6,399.6,523.9,388.5,533.5,384.3z"
       id="path10" />
    <path
       fill="none"
       stroke="#ff847c"
       stroke-width="14"
       stroke-miterlimit="10"
       d="M598.5,389.9l17.7-7.7c9.5-4.2,20.6,0.2,24.8,9.7  l43.9,100.1c4.2,9.5-0.2,20.6-9.7,24.8l-17.7,7.7c-9.5,4.2-20.6-0.2-24.8-9.7l-43.9-100.1C584.7,405.2,589,394.1,598.5,389.9z"
       id="path12" />
    <rect
       x="323.4"
       y="516.3"
       transform="matrix(0.9158 -0.4015 0.4015 0.9158 -178.0742 224.27)"
       fill="none"
       stroke="#ff847c"
       stroke-width="14"
       stroke-miterlimit="10"
       width="245.1"
       height="41.3"
       id="rect14" />
    <line
       fill="none"
       stroke="#ff847c"
       stroke-width="14"
       stroke-miterlimit="10"
       x1="663.2"
       y1="442.6"
       x2="700.3"
       y2="426.5"
       id="line16" />
    <polyline
       fill="none"
       stroke="#ff847c"
       stroke-width="14"
       stroke-miterlimit="10"
       points="333.7,585.9 458.6,531.6 558.4,488.2 "
       id="polyline18" />
    <line
       fill="none"
       stroke="#ff847c"
       stroke-width="14"
       stroke-miterlimit="10"
       x1="192"
       y1="647.6"
       x2="225.1"
       y2="633.1"
       id="line20" />
    <path
       fill="none"
       stroke="#ff847c"
       stroke-width="14"
       stroke-miterlimit="10"
       d="M438,566.6c14.2,43.2,44.3,81.2,87.3,104.7  c89.9,49,202.4,15.9,251.4-74s15.9-202.4-74-251.4c-1.7-0.9-3.5-1.9-5.2-2.7c-5.6-38.5-28.6-74.1-65.4-94.1  c-62.1-33.8-139.8-11-173.6,51.1c-20,36.7-20.2,79-4.1,114.4c-1,1.8-2.1,3.6-3.1,5.4c-18.5,33.9-25.3,71.1-21.7,106.8"
       id="path22" />
    <path
       fill="none"
       stroke="#ff847c"
       stroke-width="14"
       stroke-miterlimit="10"
       d="M662.5,332.3c-7.1-23.4-22.9-44.1-46-56.7  c-46.7-25.4-105.1-8.2-130.5,38.4c-13.6,25-15,53.3-6.2,78.1C521.1,334.2,595.6,310.3,662.5,332.3z"
       id="path24" />
  </g>
  <g
     id="SvgjsG1081"
     featurekey="nameFeature-0"
     transform="matrix(0.8539489507675171,0,0,0.8539489507675171,55.009421595073064,126.23082525573287)"
     fill="#ff847c">
    <text
       xml:space="preserve"
       style="font-size:19.158px;line-height:1.25;font-family:Montserrat;-inkscape-font-specification:Montserrat;letter-spacing:0px;word-spacing:0px;stroke-width:0.598689"
       x="35.342884"
       y="27.670948"
       id="text38"><tspan
         sodipodi:role="line"
         id="tspan36"
         x="35.342884"
         y="27.670948"
         style="font-style:normal;font-variant:normal;font-weight:normal;font-stretch:normal;font-size:19.158px;font-family:'Droid Sans';-inkscape-font-specification:'Droid Sans';stroke-width:0.598689"><tspan
   style="font-style:normal;font-variant:normal;font-weight:600;font-stretch:normal;font-family:'Droid Sans';-inkscape-font-specification:'Droid Sans Semi-Bold'"
   id="tspan44">Ever <tspan
   style="fill:#e07871;fill-opacity:1"
   id="tspan875">Ready</tspan></tspan> <tspan
   style="font-style:normal;font-variant:normal;font-weight:bold;font-stretch:normal;font-family:'Droid Sans';-inkscape-font-specification:'Droid Sans Bold';fill:#483737"
   id="tspan42">Fitness</tspan></tspan></text>
  </g>
</svg>
